HIERARCHY
ROOT Hips
{
  OFFSET 0 89.5177 0.535
  CHANNELS 6 Xposition Yposition Zposition Zrotation Xrotation Yrotation
  JOINT Spine
  {
    OFFSET 12.0259 -0.162855 1.69034e-005
    CHANNELS 3 Zrotation Xrotation Yrotation
    JOINT Spine1
    {
      OFFSET 15.3169 -0.0121922 0
      CHANNELS 3 Zrotation Xrotation Yrotation
      JOINT Spine2
      {
        OFFSET 15.3176 -0.0121908 0
        CHANNELS 3 Zrotation Xrotation Yrotation
        JOINT Neck
        {
          OFFSET 19.9142 1.56338 0
          CHANNELS 3 Zrotation Xrotation Yrotation
          JOINT Head
          {
            OFFSET 6.92651 0 0
            CHANNELS 3 Zrotation Xrotation Yrotation
            End Site
            {
              OFFSET 20.7666 0 0
            }
          }
          JOINT LeftShoulder
          {
            OFFSET -6.20654 0.708824 7.28219
            CHANNELS 3 Zrotation Xrotation Yrotation
            JOINT LeftArm
            {
              OFFSET 14.108 0 -1.52588e-005
              CHANNELS 3 Zrotation Xrotation Yrotation
              JOINT LeftForeArm
              {
                OFFSET 28.5802 0 0
                CHANNELS 3 Zrotation Xrotation Yrotation
                JOINT LeftHand
                {
                  OFFSET 27.092 0 0
                  CHANNELS 3 Zrotation Xrotation Yrotation
                  End Site
                  {
                    OFFSET 9.55928 -0.186424 0.145352
                  }
                }
              }
            }
          }
          JOINT RightShoulder
          {
            OFFSET -6.20654 0.708866 -7.28218
            CHANNELS 3 Zrotation Xrotation Yrotation
            JOINT RightArm
            {
              OFFSET 14.108 0 1.52588e-005
              CHANNELS 3 Zrotation Xrotation Yrotation
              JOINT RightForeArm
              {
                OFFSET 28.5802 0 0
                CHANNELS 3 Zrotation Xrotation Yrotation
                JOINT RightHand
                {
                  OFFSET 27.092 0 0
                  CHANNELS 3 Zrotation Xrotation Yrotation
                  End Site
                  {
                    OFFSET 9.55929 -0.186417 -0.145354
                  }
                }
              }
            }
          }
        }
      }
    }
  }
  JOINT LeftUpLeg
  {
    OFFSET 0.005 -0.535 8.837
    CHANNELS 3 Zrotation Xrotation Yrotation
    JOINT LeftLeg
    {
      OFFSET 39.9035 0 0
      CHANNELS 3 Zrotation Xrotation Yrotation
      JOINT LeftFoot
      {
        OFFSET 39.6689 0 0
        CHANNELS 3 Zrotation Xrotation Yrotation
        JOINT LeftToe
        {
          OFFSET 10.1624 13.6296 0
          CHANNELS 3 Zrotation Xrotation Yrotation
          End Site
          {
            OFFSET 8.38147 0 0
          }
        }
      }
    }
  }
  JOINT RightUpLeg
  {
    OFFSET 0.005 -0.535 -8.837
    CHANNELS 3 Zrotation Xrotation Yrotation
    JOINT RightLeg
    {
      OFFSET 39.9035 0 0
      CHANNELS 3 Zrotation Xrotation Yrotation
      JOINT RightFoot
      {
        OFFSET 39.6689 0 0
        CHANNELS 3 Zrotation Xrotation Yrotation
        JOINT RightToe
        {
          OFFSET 10.1624 13.6296 0
          CHANNELS 3 Zrotation Xrotation Yrotation
          End Site
          {
            OFFSET 8.38147 0 0
          }
        }
      }
    }
  }
}
MOTION
Frames:	12
Frame Time:	0.0333333
317.649 89.9841 -166.975 -172.837 -86.7608 96.1999 -0.0567517 -0.78653 0.400595 -0.108015 -1.57297 0.800695 -0.108015 -1.57297 0.800686 -8.30828e-012 -9.0191e-006 -5.27751e-005 18.6154 8.85261 1.54405 -179.033 -9.71935 -84.2887 72.5818 -72.6062 70.5023 -2.35995 0 -0 -41.8683 -15.6119 -36.7665 179.955 3.00889 90.8595 55.7774 53.4836 -52.5481 -20.551 9.54166e-015 3.18055e-015 -27.2673 32.5745 36.9107 6.10619 3.32952 -177.192 -1.4344 0 5.96354e-016 12.0201 10.7148 -12.2243 90 -2.00027e-015 -3.18055e-015 3.46766 -9.74206 -178.753 -5.59589 -3.18056e-015 -3.97569e-016 9.70787 -7.25265 8.15336 90 -2.37299e-015 1.19271e-015 
317.661 89.9844 -166.941 -172.64 -86.7326 96.4041 -0.0512238 -0.78767 0.405983 -0.0968759 -1.57521 0.811548 -0.096876 -1.57521 0.811539 -8.30748e-012 -9.0191e-006 -5.27751e-005 18.606 8.74736 1.54724 -179.022 -9.6698 -84.1968 72.646 -72.5374 70.5567 -2.26296 -3.18055e-015 1.59028e-015 -41.8123 -15.5812 -36.7245 179.956 2.98827 90.8529 55.8436 53.4463 -52.6706 -20.5407 6.36111e-015 -0 -26.9642 32.5076 36.626 6.09072 3.3168 -177.194 -1.37644 -7.95139e-016 -3.97569e-016 11.9557 10.7004 -12.2068 90 -6.83322e-016 4.77083e-015 3.43307 -9.76732 -178.757 -5.57268 -1.59028e-015 -0 9.71792 -7.28682 8.19252 90 -3.5657e-015 -0 
317.674 89.9848 -166.905 -172.376 -86.6869 96.6851 -0.0504446 -0.788363 0.404987 -0.0872371 -1.57802 0.809623 -0.0872372 -1.57802 0.809614 -8.30748e-012 -9.0191e-006 -5.27751e-005 18.5321 8.67671 1.56335 -179.013 -9.66577 -84.1399 72.6531 -72.4878 70.579 -2.22903 7.95139e-016 -0 -41.8815 -15.6363 -36.7634 179.957 2.98044 90.8337 55.9016 53.4257 -52.763 -20.5258 -3.18055e-015 -0 -26.9233 32.5024 36.591 6.04407 3.3488 -177.204 -1.3346 3.97569e-016 -4.96962e-016 11.9448 10.7169 -12.2264 90 1.83876e-015 1.59028e-015 3.38734 -9.78154 -178.769 -5.53084 1.59028e-015 -0 9.73839 -7.32128 8.2323 90 2.17421e-015 -7.95139e-016 
317.69 89.9877 -166.872 -172.51 -86.6287 96.5538 -0.0501249 -0.789315 0.405637 -0.0894682 -1.58093 0.809214 -0.0894683 -1.58093 0.809205 -8.30708e-012 -9.0191e-006 -5.27751e-005 18.3984 8.7652 1.69376 -179.006 -9.66986 -84.1043 72.5793 -72.4789 70.4843 -2.18352 -1.59028e-015 -3.18055e-015 -41.7255 -15.6392 -36.7008 179.957 2.98589 90.8247 55.9323 53.419 -52.8047 -20.5139 0 -1.59028e-015 -26.9551 32.4829 36.625 5.96597 3.38953 -177.195 -1.32584 0 -9.93923e-017 11.9313 10.7412 -12.255 90 8.69683e-017 1.59028e-015 3.32899 -9.83301 -178.764 -5.49559 0 3.97569e-016 9.74286 -7.36796 8.28584 90 1.49089e-016 -3.97569e-016 
317.699 89.9913 -166.837 -172.832 -86.5666 96.2474 -0.0500193 -0.792012 0.407323 -0.0936355 -1.58388 0.808851 -0.0936356 -1.58388 0.808842 -8.30708e-012 -9.0191e-006 -5.27751e-005 18.2905 8.71688 1.73051 -179 -9.69416 -84.0822 72.5379 -72.5117 70.4323 -2.19994 -7.95139e-016 1.59028e-015 -41.9291 -15.6054 -36.8254 179.958 2.98624 90.8095 55.898 53.4201 -52.7284 -20.4872 3.18055e-015 -4.77083e-015 -26.993 32.557 36.6608 5.87652 3.39613 -177.197 -1.32081 3.97569e-016 -2.98177e-016 11.9209 10.777 -12.2972 90 -2.23633e-015 3.18055e-015 3.25737 -9.84755 -178.764 -5.46628 0 -0 9.71613 -7.37236 8.29067 90 -1.71452e-015 -3.97569e-016 
317.707 89.9948 -166.812 -173.284 -86.528 95.8093 -0.0499046 -0.794397 0.409649 -0.0958977 -1.58701 0.807205 -0.0958978 -1.58701 0.807196 -8.30669e-012 -9.0191e-006 -5.27751e-005 18.271 8.68225 1.73479 -179.008 -9.69288 -84.1263 72.7243 -72.5209 70.5891 -2.24591 0 -0 -41.8016 -15.5946 -36.7662 179.957 2.99763 90.815 55.8425 53.4328 -52.633 -20.4575 0 1.59028e-015 -27.1836 32.6199 36.8682 5.81555 3.39984 -177.197 -1.31601 3.97569e-016 9.93923e-017 11.898 10.7906 -12.3129 90 1.75179e-015 -0 3.21742 -9.83744 -178.766 -5.43174 -1.59028e-015 -0 9.68361 -7.33276 8.24529 90 -3.35449e-015 -0 
317.71 89.9966 -166.793 -173.864 -86.5096 95.2296 -0.0495411 -0.796718 0.412221 -0.0949446 -1.59364 0.82034 -0.0949447 -1.59364 0.820331 -8.30708e-012 -9.0191e-006 -5.27751e-005 18.3814 8.64749 1.66175 -179.013 -9.67896 -84.1463 72.8976 -72.5601 70.7072 -2.29093 -7.95139e-016 -0 -41.8531 -15.5679 -36.625 179.958 2.99918 90.8042 55.7592 53.4875 -52.4625 -20.4964 0 -1.59028e-015 -27.1165 32.5627 36.7303 5.78306 3.39045 -177.196 -1.3013 -3.97569e-016 -3.97569e-016 11.9029 10.8118 -12.3381 90 2.2239e-015 -0 3.19231 -9.85467 -178.767 -5.42206 -1.59028e-015 -7.95139e-016 9.68288 -7.33728 8.25042 90 -1.6027e-015 -3.97569e-016 
317.715 89.9978 -166.782 -174.568 -86.5073 94.5393 -0.0486912 -0.798975 0.414643 -0.0916094 -1.59781 0.828898 -0.0916095 -1.59781 0.828888 -8.30867e-012 -9.0191e-006 -5.27751e-005 18.477 8.62403 1.63071 -179.009 -9.68925 -84.1328 72.8531 -72.6022 70.7142 -2.34906 -7.95139e-016 -0 -41.929 -15.5553 -36.7376 179.958 3.02148 90.797 55.6757 53.5172 -52.3472 -20.5912 -3.18055e-015 -0 -27.1842 32.5932 36.8185 5.76726 3.35461 -177.196 -1.29825 3.97569e-016 9.93923e-017 11.8999 10.8334 -12.3638 90 -5.09386e-016 1.59028e-015 3.18 -9.90616 -178.769 -5.42789 -1.59028e-015 -0 9.68123 -7.34545 8.25976 90 1.19271e-015 -7.95139e-016 
317.719 89.9998 -166.769 -175.245 -86.5264 93.8733 -0.0430788 -0.801149 0.418273 -0.0803339 -1.60055 0.836236 -0.080334 -1.60055 0.836227 -8.30867e-012 -9.0191e-006 -5.27751e-005 18.6048 8.70954 1.62853 -179.013 -9.68242 -84.1512 72.786 -72.5571 70.7169 -2.40694 0 1.59028e-015 -41.9292 -15.5474 -36.6296 179.959 3.04293 90.7751 55.5987 53.5494 -52.2749 -20.6529 -9.54166e-015 1.59028e-015 -27.1701 32.6244 36.8574 5.75804 3.32547 -177.195 -1.31433 3.97569e-016 -7.95139e-016 11.8859 10.8397 -12.3709 90 -5.34234e-016 -0 3.17698 -9.87666 -178.771 -5.44183 3.18056e-015 3.97569e-016 9.66004 -7.28185 8.18674 90 -1.54058e-015 -7.95139e-016 
317.72 89.9999 -166.764 -175.73 -86.5516 93.3891 -0.0376203 -0.803257 0.427503 -0.0692607 -1.60564 0.854775 -0.0692609 -1.60564 0.854766 -8.30669e-012 -9.0191e-006 -5.27751e-005 18.7732 8.7173 1.61318 -179.013 -9.66681 -84.1407 72.9516 -72.4678 70.9543 -2.46913 -1.59028e-015 -0 -42.0448 -15.3692 -36.5684 179.959 3.01954 90.7873 55.6095 53.5438 -52.2917 -20.6866 3.18055e-015 -1.59028e-015 -27.163 32.5226 36.7612 5.77304 3.30255 -177.195 -1.31572 -3.97569e-016 9.93923e-017 11.8912 10.8373 -12.368 90 -1.92573e-015 -3.18055e-015 3.17802 -9.89557 -178.772 -5.48336 1.59028e-015 -0 9.66728 -7.26925 8.17217 90 -9.19379e-016 -0 
317.721 90.0015 -166.752 -176.141 -86.5726 92.9849 -0.0319305 -0.805348 0.433234 -0.0577762 -1.61045 0.866318 -0.0577764 -1.61045 0.866308 -8.30788e-012 -9.0191e-006 -5.27751e-005 19.0144 8.77617 1.53392 -179.007 -9.6994 -84.1277 72.0351 -72.1868 70.2186 -2.56576 0 -1.59028e-015 -41.93 -15.545 -36.6818 179.959 3.02792 90.767 55.5477 53.5221 -52.3058 -20.706 -3.18055e-015 -0 -27.1278 32.5511 36.7477 5.7739 3.27359 -177.195 -1.33049 0 -6.95746e-016 11.8842 10.8191 -12.3463 90 -1.68967e-015 -1.59028e-015 3.18002 -9.89351 -178.774 -5.50763 1.59028e-015 7.95139e-016 9.65842 -7.24124 8.1399 90 -1.22998e-015 3.97569e-016 
317.721 90.0024 -166.745 -176.279 -86.5867 92.8498 -0.0318171 -0.807932 0.434064 -0.0529576 -1.61865 0.86598 -0.0529577 -1.61865 0.865971 -8.30828e-012 -9.0191e-006 -5.27751e-005 19.181 8.76192 1.62244 -179.004 -9.6719 -84.0919 72.0354 -72.1213 70.2198 -2.43807 1.59028e-015 -0 -41.819 -15.5381 -36.5083 179.961 3.05217 90.7397 55.4499 53.4583 -52.3591 -20.6741 -6.36111e-015 -0 -27.2826 32.5913 36.9171 5.78015 3.28231 -177.196 -1.3315 -1.19271e-015 9.93923e-017 11.88 10.8552 -12.3889 90 1.67725e-015 -1.59028e-015 3.18259 -9.88603 -178.774 -5.52297 0 -0 9.66106 -7.23095 8.12676 90 1.32937e-015 -0 
